<?xml version="1.0" encoding="utf-8"?><svg xmlns="http://www.w3.org/2000/svg" xmlns:xlink="http://www.w3.org/1999/xlink"><symbol viewBox="0 0 10 5" id="icon-arrow-down" xmlns="http://www.w3.org/2000/svg"><path d="M5 5L9.33.5H.67L5 5z"/></symbol><symbol id="icon-arrow-up-down" viewBox="0 0 32 32" xml:space="preserve" xmlns="http://www.w3.org/2000/svg"><style>.st0{fill:none;stroke:#000;stroke-width:2;stroke-linecap:round;stroke-linejoin:round;stroke-miterlimit:10}</style><path d="M19 6.8V3.9c0-.6-.6-1.2-1.1-.8L12 8.8l5.9 5.7c.4.4 1.1.1 1.1-.5v-3.1c3.8 0 7.2 2.5 8 6v.1-2.7c0-4.2-3.7-7.5-8-7.5zM13 25.2V28c0 .6.6 1.2 1.1.8l5.9-5.7-5.9-5.7c-.5-.3-1.1 0-1.1.6v3.1c-3.8 0-7.2-2.5-8-6V15v2.7c0 4.2 3.7 7.5 8 7.5z"/></symbol><symbol viewBox="0 0 20 20" id="icon-close" xmlns="http://www.w3.org/2000/svg"><path d="M.639.638a.903.903 0 011.276 0l17.447 17.447a.903.903 0 11-1.277 1.277L.639 1.915a.903.903 0 010-1.277z"/><path d="M19.361.638a.903.903 0 00-1.276 0L.638 18.085a.903.903 0 001.277 1.277L19.361 1.915a.903.903 0 000-1.277z"/></symbol><symbol viewBox="0 0 18 18" id="icon-location" xmlns="http://www.w3.org/2000/svg"><path d="M9 0C5.683 0 3 2.817 3 6.3 3 11.025 9 18 9 18s6-6.975 6-11.7C15 2.817 12.317 0 9 0zm0 8.55c-1.183 0-2.143-1.008-2.143-2.25S7.817 4.05 9 4.05c1.183 0 2.143 1.008 2.143 2.25S10.183 8.55 9 8.55z"/></symbol><symbol viewBox="0 0 18 18" id="icon-mail" xmlns="http://www.w3.org/2000/svg"><path d="M15.6 2.25H2.4c-.907 0-1.642.76-1.642 1.688L.75 14.062c0 .929.742 1.688 1.65 1.688h13.2c.908 0 1.65-.76 1.65-1.688V3.938c0-.929-.742-1.688-1.65-1.688zm0 3.375L9 9.844 2.4 5.625V3.937L9 8.157l6.6-4.22v1.688z"/></symbol><symbol stroke-width="0" viewBox="0 0 16 16" id="icon-pencil" xmlns="http://www.w3.org/2000/svg"><path d="M15.502 1.94a.5.5 0 010 .706L14.459 3.69l-2-2L13.502.646a.5.5 0 01.707 0l1.293 1.293zm-1.75 2.456l-2-2L4.939 9.21a.5.5 0 00-.121.196l-.805 2.414a.25.25 0 00.316.316l2.414-.805a.5.5 0 00.196-.12l6.813-6.814z"/><path fill-rule="evenodd" d="M1 13.5A1.5 1.5 0 002.5 15h11a1.5 1.5 0 001.5-1.5v-6a.5.5 0 00-1 0v6a.5.5 0 01-.5.5h-11a.5.5 0 01-.5-.5v-11a.5.5 0 01.5-.5H9a.5.5 0 000-1H2.5A1.5 1.5 0 001 2.5v11z"/></symbol><symbol viewBox="0 0 18 18" id="icon-phone" xmlns="http://www.w3.org/2000/svg"><path d="M4.965 8.092a11.361 11.361 0 004.943 4.943l1.65-1.65a.746.746 0 01.764-.18c.84.277 1.748.428 2.678.428.412 0 .75.337.75.75V15c0 .412-.338.75-.75.75C7.957 15.75 2.25 10.043 2.25 3c0-.413.337-.75.75-.75h2.625c.412 0 .75.337.75.75 0 .938.15 1.838.428 2.678a.753.753 0 01-.188.764l-1.65 1.65z"/></symbol><symbol viewBox="-3 0 28 28" id="icon-play" xmlns="http://www.w3.org/2000/svg"><path d="M1.983 25.247V2.722l17.848 11.262L1.983 25.247zm19.221-12.711L2.394.279C1.278-.328 0-.057 0 1.917v24.135c0 1.96 1.371 2.309 2.394 1.637l18.81-12.256c1.084-.768 1.054-2.191 0-2.897z" fill-rule="evenodd"/></symbol><symbol viewBox="0 0 44 44" id="icon-range" xmlns="http://www.w3.org/2000/svg"><path fill-rule="evenodd" clip-rule="evenodd" d="M.607.67C.093 1.239 0 2.28 0 7.433c0 4.074.135 6.175.408 6.343.823.51 1.048-.885 1.053-6.533l.006-5.775H13.2v41.066H1.467V29.195c0-10.711-.097-13.419-.492-13.747-.271-.224-.601-.3-.734-.167C.11 15.414 0 21.657 0 29.154c0 12.741.044 13.672.67 14.24.597.539 2.056.606 13.2.606 10.465 0 12.53-.084 12.53-.51 0-.828-.873-.957-6.474-.957-4.68 0-5.3-.07-5.195-.587.099-.491.758-.597 3.969-.642l3.85-.054.107-2.213c.083-1.727.265-2.312.825-2.661.684-.428.718-.34.718 1.864 0 1.31.19 2.504.44 2.753.594.595 6.592.595 7.186 0 .285-.285.44-1.763.44-4.195 0-3.325-.083-3.815-.724-4.264-.694-.486-.67-.532.563-1.12.99-.473 2.34-.614 5.857-.614h4.57v11.718l-7.236.1c-6.555.09-7.248.16-7.36.74-.114.595.43.642 7.363.642 6.788 0 7.544-.063 8.094-.67.511-.566.607-1.593.607-6.53 0-7.468.14-7.24-4.584-7.411l-3.543-.129 3.147-1.826c2.21-1.282 3.212-2.086 3.366-2.7.164-.655-.405-1.959-2.267-5.196-3.324-5.779-3.735-6.338-4.65-6.338-.43 0-2.25.835-4.047 1.856-1.795 1.022-3.335 1.787-3.42 1.702-.085-.086.685-1.583 1.712-3.328 2.687-4.565 2.694-4.546-3.13-8.033-2.623-1.57-5.146-2.95-5.607-3.069-1.177-.301-1.968.53-4.212 4.43l-1.915 3.325-.184-4.437c-.123-2.989-.347-4.635-.686-5.042C13.55.087 12.593 0 7.345 0 1.871 0 1.15.072.607.67zm2.488 2.737c-.105.274-.143 2.053-.085 3.954l.107 3.456 3.483.107c5.44.168 5.178.379 5.054-4.06l-.104-3.747-4.132-.104c-3.215-.08-4.174.006-4.323.394zm22.354 2.806c2.396 1.4 4.518 2.708 4.716 2.905.233.234-2.372 5.02-7.479 13.74-7.784 13.292-7.837 13.37-7.948 11.763-.086-1.248.09-1.89.77-2.81.916-1.241 3.192-5.17 3.192-5.512 0-.108-.908-.708-2.017-1.334-1.628-.919-2.017-1.32-2.017-2.083v-.945l2.387 1.335c1.312.734 2.534 1.243 2.715 1.13.339-.208 3.698-5.794 3.698-6.148 0-.277-6.825-4.32-7.293-4.32-.21 0-.63.453-.93 1.008l-.547 1.008-.015-1.528c-.011-1.236.45-2.32 2.42-5.683 2.802-4.78 3.008-5.072 3.573-5.072.23 0 2.378 1.146 4.775 2.546zm-14.89.662l-.11 2.475-3.207.106-3.209.106V4.4h6.634l-.109 2.475zm9.434.073c-.308.595-.56 1.173-.56 1.284 0 .388.865.196 1.438-.32.507-.457.873-.344 2.961.913 1.31.79 2.428 1.573 2.485 1.742.15.453-1.772 3.764-2.305 3.969-.68.26-5.154-2.623-4.994-3.218.497-1.835-.372-2.354-1.213-.726-.315.607-.572 1.273-.572 1.478 0 .504 6.88 4.527 7.299 4.268.357-.22 3.701-5.803 3.701-6.178 0-.315-6.716-4.293-7.248-4.293-.238 0-.685.487-.992 1.081zM3.189 12.7c-.14.14-.256 1.878-.256 3.861v3.606h8.826l-.105-3.759-.104-3.758-4.052-.103c-2.23-.056-4.168.012-4.309.153zm7.37 3.708l-.11 2.475H4.218l-.109-2.475L4 13.933h6.667l-.109 2.475zm27.896 2.84c1.437 2.52 2.611 4.79 2.611 5.047 0 .54-26.16 15.726-26.33 15.284-.213-.552 1.046-2.546 1.607-2.546.573 0 6.39-3.223 6.39-3.54 0-.099-.536-1.15-1.192-2.336-1.098-1.989-1.145-2.205-.598-2.754.547-.55.699-.408 1.954 1.838.75 1.338 1.476 2.383 1.615 2.321 1.198-.53 5.952-3.348 6.126-3.63.24-.389-3.734-7.665-4.186-7.665-.15 0-.467.195-.706.433-.737.737-.918.04-.274-1.05.636-1.076 8.645-5.977 9.775-5.981.382-.002 1.54 1.65 3.208 4.58zm-16.83-.425c-.005.235-.544 1.287-1.198 2.337l-1.19 1.91-2.285-1.349c-2.522-1.487-2.769-2.106-1.69-4.231 1.088-2.142 1.084-2.142 3.824-.562 1.4.808 2.543 1.66 2.539 1.895zm9.648-.367c-1.453.857-2.748 1.663-2.876 1.792-.24.24 3.781 7.619 4.152 7.619.612 0 6.317-3.501 6.317-3.877 0-.916-3.83-7.123-4.385-7.107-.31.01-1.754.717-3.208 1.573zm4.628 2.476c.824 1.43 1.499 2.651 1.499 2.715 0 .18-3.986 2.387-4.303 2.383-.283-.004-3.03-4.622-3.03-5.094 0-.244 3.597-2.503 4.093-2.57.134-.018.917 1.137 1.741 2.566zM3.012 25.758l.105 3.759h8.433l.104-3.759L11.76 22H2.908l.104 3.758zm7.546 0l.109 2.475H4.033v-2.322c0-1.277.117-2.438.258-2.58.142-.142 1.586-.21 3.209-.153l2.95.105.108 2.475zm17.23-.009l1.527 2.65-2.1 1.196c-1.154.658-2.184 1.198-2.288 1.2-.104.003-.746-.926-1.427-2.065-1.503-2.513-1.312-3.544.889-4.79.803-.456 1.553-.83 1.666-.834.114-.003.894 1.186 1.733 2.643zm-10.922 1.123c0 .373-1.836 3.561-2.051 3.561-.082 0-.149-1.164-.149-2.587v-2.587l1.1.65c.606.357 1.1.79 1.1.963zm4.026 5.978c.007.348-3.217 2.35-3.785 2.35-.115 0 .39-1.006 1.122-2.235l1.331-2.235.662.86c.364.473.665 1.04.67 1.26zm13.005-.115c-.105.273-.143 2.3-.085 4.505l.104 4.01h7.334v-8.8l-3.582-.105c-2.744-.08-3.626.01-3.771.39zM30.8 36.85v3.117h-5.134v-2.39c0-2.3.044-2.414 1.192-3.114.655-.4 1.81-.727 2.567-.728l1.375-.002v3.117zm9.533 0v3.117H35.2v-6.234h5.133v3.117zm-34.77-1.168c-1.053 1.122-1.006 2.275.139 3.42.727.728 1.155.881 1.925.692.544-.133 1.185-.438 1.424-.676.239-.24.543-.88.677-1.425.188-.77.035-1.197-.693-1.925-1.162-1.162-2.43-1.194-3.471-.086zM8.25 37.4c0 .733-.183.917-.917.917-.733 0-.94-.208-1.035-1.036-.108-.941-.025-1.024.916-.916.829.094 1.036.302 1.036 1.035zm12.9 2.439c-.094.094-.96.12-1.923.058l-1.751-.114 1.803-.991 1.804-.992.12.934c.065.513.041 1.01-.053 1.105z"/></symbol><symbol viewBox="0 0 24 24" id="icon-save" xmlns="http://www.w3.org/2000/svg"><path d="M3 5.75A2.75 2.75 0 015.75 3h9.964a3.25 3.25 0 012.299.952l2.035 2.035c.61.61.952 1.437.952 2.299v9.964A2.75 2.75 0 0118.25 21H5.75A2.75 2.75 0 013 18.25V5.75zM5.75 4.5c-.69 0-1.25.56-1.25 1.25v12.5c0 .69.56 1.25 1.25 1.25H6v-5.25A2.25 2.25 0 018.25 12h7.5A2.25 2.25 0 0118 14.25v5.25h.25c.69 0 1.25-.56 1.25-1.25V8.286c0-.465-.184-.91-.513-1.238l-2.035-2.035a1.75 1.75 0 00-.952-.49V7.25a2.25 2.25 0 01-2.25 2.25h-4.5A2.25 2.25 0 017 7.25V4.5H5.75zm10.75 15v-5.25a.75.75 0 00-.75-.75h-7.5a.75.75 0 00-.75.75v5.25h9zm-8-15v2.75c0 .414.336.75.75.75h4.5a.75.75 0 00.75-.75V4.5h-6z"/></symbol><symbol viewBox="0 0 28 28" id="icon-search" xmlns="http://www.w3.org/2000/svg"><path d="M18.083 16.333h-.921l-.327-.315a7.55 7.55 0 001.832-4.935 7.583 7.583 0 10-15.167 0 7.583 7.583 0 007.583 7.584 7.55 7.55 0 004.935-1.832l.315.327v.921l5.834 5.822 1.738-1.738-5.822-5.834zm-7 0a5.243 5.243 0 01-5.25-5.25 5.243 5.243 0 015.25-5.25 5.243 5.243 0 015.25 5.25 5.243 5.243 0 01-5.25 5.25z"/></symbol><symbol viewBox="0 0 24 24" id="icon-settings" xmlns="http://www.w3.org/2000/svg"><path fill-rule="evenodd" clip-rule="evenodd" d="M12 8.25a3.75 3.75 0 100 7.5 3.75 3.75 0 000-7.5zM9.75 12a2.25 2.25 0 114.5 0 2.25 2.25 0 01-4.5 0z"/><path fill-rule="evenodd" clip-rule="evenodd" d="M11.975 1.25c-.445 0-.816 0-1.12.02a2.823 2.823 0 00-.907.19 2.75 2.75 0 00-1.489 1.488c-.145.35-.184.72-.2 1.122a.868.868 0 01-.415.731.868.868 0 01-.841-.005c-.356-.188-.696-.339-1.072-.389a2.75 2.75 0 00-2.033.545c-.25.192-.44.428-.617.691-.17.254-.356.575-.578.96l-.025.044c-.223.385-.408.706-.542.98-.14.286-.25.568-.29.88a2.75 2.75 0 00.544 2.033c.231.301.532.52.872.734a.868.868 0 01.426.726.868.868 0 01-.426.726c-.34.214-.64.433-.872.734a2.75 2.75 0 00-.545 2.033c.041.312.15.594.29.88.135.274.32.595.543.98l.025.044c.222.385.408.706.578.96.177.263.367.5.617.69a2.75 2.75 0 002.033.546c.376-.05.716-.2 1.072-.389a.867.867 0 01.84-.005c.242.138.405.408.417.731.015.402.054.772.2 1.122a2.75 2.75 0 001.488 1.489c.29.12.59.167.907.188.304.021.675.021 1.12.021h.05c.445 0 .816 0 1.12-.02.318-.022.617-.069.907-.19a2.75 2.75 0 001.489-1.488c.145-.35.184-.72.2-1.122a.868.868 0 01.415-.732.868.868 0 01.841.006c.356.188.696.339 1.072.388a2.75 2.75 0 002.033-.544c.25-.192.44-.428.617-.691.17-.254.356-.575.578-.96l.025-.044c.223-.385.408-.706.542-.98.14-.286.25-.569.29-.88a2.75 2.75 0 00-.544-2.033c-.231-.301-.532-.52-.872-.734a.868.868 0 01-.426-.726c0-.278.152-.554.426-.726.34-.214.64-.433.872-.734a2.75 2.75 0 00.545-2.033 2.826 2.826 0 00-.29-.88c-.135-.274-.32-.595-.543-.98l-.025-.044c-.222-.385-.408-.706-.578-.96a2.823 2.823 0 00-.617-.69 2.75 2.75 0 00-2.033-.546c-.376.05-.716.2-1.072.389a.868.868 0 01-.84.005.868.868 0 01-.417-.731c-.015-.402-.054-.772-.2-1.122a2.75 2.75 0 00-1.488-1.489c-.29-.12-.59-.167-.907-.188-.304-.021-.675-.021-1.12-.021h-.05zm-1.453 1.595c.077-.032.194-.061.435-.078.247-.017.567-.017 1.043-.017s.796 0 1.043.017c.241.017.358.046.435.078.307.127.55.37.677.677.04.096.073.247.086.604.03.792.439 1.555 1.165 1.974.726.42 1.591.392 2.292.022.316-.167.463-.214.567-.227a1.25 1.25 0 01.924.247c.066.051.15.138.285.338.139.206.299.483.537.895.238.412.397.69.506.912.107.217.14.333.15.416a1.25 1.25 0 01-.247.924c-.064.083-.178.187-.48.377-.672.422-1.128 1.158-1.128 1.996 0 .838.456 1.574 1.128 1.996.302.19.416.294.48.377.202.263.29.595.247.924-.01.083-.044.2-.15.416-.109.223-.268.5-.506.912-.238.412-.399.689-.537.895-.135.2-.219.287-.285.338a1.25 1.25 0 01-.924.247c-.104-.013-.25-.06-.567-.227-.7-.37-1.566-.398-2.292.021-.726.42-1.135 1.183-1.165 1.975-.013.357-.046.508-.086.604a1.25 1.25 0 01-.677.677c-.077.032-.194.061-.435.078-.247.017-.567.017-1.043.017s-.796 0-1.043-.017c-.241-.017-.358-.046-.435-.078a1.25 1.25 0 01-.677-.677c-.04-.096-.073-.247-.086-.604-.03-.792-.439-1.555-1.165-1.974-.726-.42-1.591-.392-2.292-.022-.316.167-.463.214-.567.227a1.25 1.25 0 01-.924-.247c-.066-.051-.15-.138-.285-.338a17.055 17.055 0 01-.537-.895c-.238-.412-.397-.69-.506-.912-.107-.217-.14-.333-.15-.416a1.25 1.25 0 01.247-.924c.064-.083.178-.187.48-.377.672-.422 1.128-1.158 1.128-1.996 0-.838-.456-1.574-1.128-1.996-.302-.19-.416-.294-.48-.377a1.25 1.25 0 01-.247-.924c.01-.083.044-.2.15-.416.109-.223.268-.5.506-.912.238-.412.399-.689.537-.895.135-.2.219-.287.285-.338a1.25 1.25 0 01.924-.247c.104.013.25.06.567.227.7.37 1.566.398 2.292-.022.726-.419 1.135-1.182 1.165-1.974.013-.357.046-.508.086-.604.127-.307.37-.55.677-.677z"/></symbol></svg>